# xmcd
#
# Track frame offsets: 
#        150
#        15402
#        31079
#        50621
#
# Disc length: 899 seconds
#
# Revision: 2
# Processed by: cddbd v1.5.1PL0 Copyright (c) Steve Scherf et al.
# Submitted via: ExactAudioCopy v0.95a5
#
DISCID=23038104
DTITLE=Taraf Xarakoz - Cuie De Cîrnat
DYEAR=1900
DGENRE=Folk
TTITLE0=Mi badita (Moldavian love song)
TTITLE1=Atojska Rachenitsa (Bulgarien dance)
TTITLE2=Slobozine a gazde-n casa (Romanian christmas carol)
TTITLE3=Nani nani (Moldavian lullaby)
EXTD=
EXTT0=
EXTT1=
EXTT2=
EXTT3=
PLAYORDER=
